<?xml version="1.0" encoding="utf-8" ?>
<svg xmlns="http://www.w3.org/2000/svg" xmlns:xlink="http://www.w3.org/1999/xlink" width="1024" height="1024">
	<path d="M0 0L1024 0L1024 1024L0 1024L0 0Z"/>
	<path fill="#F6F311" d="M475.606 622.196C499.134 621.634 524.224 621.31 547.672 622.546C545.139 629.497 541.696 636.27 538.636 643.012C536.641 647.405 534.832 652.465 532.26 656.539C530.108 659.947 524.023 663.071 522.825 666.418L524.137 668.63C525.314 672.776 525.6 677.888 523.668 681.848C522.13 685.001 519.318 687.201 515.983 688.204Q515.304 688.411 514.608 688.55Q513.912 688.69 513.206 688.759Q512.5 688.829 511.79 688.829Q511.081 688.83 510.375 688.76Q509.668 688.69 508.972 688.55Q508.277 688.411 507.598 688.204Q506.919 687.997 506.264 687.724Q505.609 687.451 504.984 687.115Q504.367 686.784 503.788 686.391Q503.209 685.998 502.673 685.547Q502.138 685.095 501.653 684.591Q501.168 684.086 500.737 683.534Q500.307 682.982 499.936 682.388Q499.566 681.794 499.259 681.165Q498.952 680.536 498.713 679.878Q498.473 679.22 498.303 678.541C497.179 673.894 498.778 669.277 501.2 665.336C491.115 659.561 487.162 647.789 482.523 637.767C480.161 632.664 477.444 627.511 475.606 622.196Z"/>
	<path fill="#B9FE08" d="M484.667 334.723C494.545 334.518 504.492 334.808 514.379 334.828C523.227 334.846 535.146 333.715 543.663 335.75C547.219 336.6 550.511 338.814 553.19 341.243C558.304 345.877 561.082 351.939 561.365 358.82C562.1 376.668 561.467 394.778 561.523 412.656L561.725 528.58C561.743 537.566 562.342 603.862 560.319 605.945C556.811 609.557 545.103 608.084 540.125 608.015C529.634 607.982 469.921 609.133 464.251 607.052C463.438 606.1 462.679 605.323 462.44 604.047C460.838 595.512 461.899 577.779 461.913 568.542L461.991 491L461.717 407.101L461.529 377.131C461.482 370.975 461.106 364.645 461.591 358.51C462.002 353.319 463.562 348.353 466.792 344.206C471.245 338.488 477.688 335.703 484.667 334.723Z"/>
	<path d="M487.869 357.525C494.443 357.053 501.265 357.466 507.874 357.454C516.089 357.439 524.544 357.01 532.733 357.566C534.794 357.706 536.302 357.828 537.621 359.585C539.553 362.157 539.199 368.05 538.68 371.101C538.261 373.565 536.775 374.706 534.79 376.004C534.655 376.031 534.521 376.063 534.385 376.086C528.63 377.063 497.357 376.954 491.352 376.312C489.687 376.134 487.232 375.792 485.958 374.582C483.684 372.424 483.795 366.133 484.175 363.155C484.504 360.58 485.953 359.114 487.869 357.525Z"/>
	<path d="M490.759 399.202C498.576 398.942 530.338 398.02 535.531 400.575C536.708 401.154 537.881 402.308 538.267 403.583C539.793 408.621 538.79 441.793 538.773 449.887L538.848 534.806C538.86 541.296 539.934 583.907 538.141 587.346C536.814 589.891 534.354 590.607 531.789 591.416C523.769 591.87 492.215 592.994 487.123 590.24C485.597 589.415 484.986 588.054 484.55 586.452C482.999 580.761 484.066 573.063 484.06 567.136L484.01 531.843L484.112 446.307C484.131 433.841 483.553 421.224 483.965 408.78C484.03 406.807 484.131 404.49 485.202 402.779C486.433 400.813 488.599 399.783 490.759 399.202Z"/>
</svg>
